<?xml version="1.0" encoding="utf-8"?>
<!-- Generator: Adobe Illustrator 17.0.0, SVG Export Plug-In . SVG Version: 6.00 Build 0)  -->
<!DOCTYPE svg PUBLIC "-//W3C//DTD SVG 1.1//EN" "http://www.w3.org/Graphics/SVG/1.1/DTD/svg11.dtd">
<svg version="1.1" id="Camada_1" xmlns="http://www.w3.org/2000/svg" xmlns:xlink="http://www.w3.org/1999/xlink" x="0px" y="0px"
	 width="94px" height="28.75px" viewBox="0 0 94 28.75" enable-background="new 0 0 94 28.75" xml:space="preserve">
<path fill="#425C93" d="M48.8,21.812c0-1.141-0.297-2.062-0.891-2.765c-0.638-0.746-1.515-1.119-2.63-1.119
	c-1.109,0-1.98,0.373-2.618,1.119c-0.594,0.702-0.891,1.624-0.891,2.765c0,1.127,0.303,2.045,0.912,2.755
	c0.629,0.739,1.495,1.108,2.596,1.108c1.101,0,1.971-0.373,2.609-1.119C48.495,23.854,48.8,22.939,48.8,21.812 M47.345,21.812
	c0,0.739-0.159,1.35-0.479,1.833c-0.362,0.564-0.889,0.844-1.586,0.844c-0.688,0-1.216-0.28-1.586-0.844
	c-0.312-0.483-0.468-1.094-0.468-1.833c0-0.753,0.153-1.371,0.457-1.854c0.362-0.564,0.894-0.845,1.597-0.845
	c0.703,0,1.234,0.28,1.598,0.845C47.189,20.441,47.345,21.059,47.345,21.812 M39.651,24.643c0.79-0.716,1.184-1.726,1.184-3.028
	c0-1.214-0.38-2.143-1.14-2.787c-0.702-0.599-1.67-0.9-2.902-0.9c-0.855,0-1.592,0.066-2.215,0.198v7.384
	c0.593,0.11,1.253,0.164,1.977,0.164C37.866,25.674,38.898,25.331,39.651,24.643 M39.38,21.626c0,0.849-0.218,1.532-0.652,2.052
	c-0.464,0.542-1.109,0.811-1.935,0.811c-0.318,0-0.604-0.029-0.858-0.087v-5.191c0.283-0.066,0.616-0.097,1-0.097
	c0.775,0,1.376,0.221,1.803,0.663C39.166,20.22,39.38,20.835,39.38,21.626 M32.175,25.554h1.522l-2.956-7.504h-1.293l-3.075,7.504
	l1.456-0.011l0.739-1.897h2.869L32.175,25.554z M30.991,22.46h-1.943l0.966-2.535L30.991,22.46z M24.636,24.643
	c0.789-0.716,1.184-1.726,1.184-3.028c0-1.214-0.381-2.143-1.141-2.787c-0.702-0.599-1.669-0.9-2.902-0.9
	c-0.855,0-1.592,0.066-2.215,0.198v7.384c0.594,0.11,1.252,0.164,1.976,0.164C22.849,25.674,23.881,25.331,24.636,24.643
	 M24.363,21.626c0,0.849-0.218,1.532-0.652,2.052c-0.464,0.542-1.108,0.811-1.935,0.811c-0.318,0-0.604-0.029-0.858-0.087v-5.191
	c0.284-0.066,0.616-0.097,1-0.097c0.776,0,1.377,0.221,1.804,0.663C24.149,20.22,24.363,20.835,24.363,21.626 M16.573,25.554h1.359
	v-7.504h-1.359V25.554z M14.118,25.027c0.579-0.467,0.869-1.144,0.869-2.029v-4.948h-1.359v4.849c0,1.062-0.55,1.591-1.652,1.591
	c-1.101,0-1.652-0.529-1.652-1.591v-4.849H8.968v4.948c0,0.877,0.289,1.554,0.868,2.029c0.536,0.432,1.249,0.647,2.14,0.647
	C12.874,25.674,13.588,25.459,14.118,25.027 M4.056,23.678c-0.421-0.497-0.63-1.163-0.63-1.997c0-0.709,0.181-1.299,0.543-1.767
	c0.391-0.52,0.927-0.779,1.608-0.779c0.5,0,1.071,0.142,1.716,0.428l0.445-1.119c-0.746-0.337-1.46-0.505-2.141-0.505
	c-1.108,0-1.989,0.363-2.645,1.09c-0.656,0.729-0.985,1.656-0.985,2.782c0,1.134,0.354,2.06,1.06,2.776
	c0.707,0.717,1.621,1.074,2.744,1.074c0.659,0,1.322-0.163,1.988-0.493l-0.348-1.053c-0.486,0.234-0.974,0.352-1.467,0.352
	C5.133,24.468,4.504,24.204,4.056,23.678"/>
<path fill="#425C93" d="M92.75,25.553V24.37h-3.075v-6.321h-1.359v7.504H92.75z M85.915,25.553h1.521l-2.955-7.504h-1.294
	l-3.075,7.504l1.457-0.011l0.739-1.897h2.868L85.915,25.553z M84.731,22.461h-1.945l0.967-2.536L84.731,22.461z M78.234,21.681
	v-0.023c0.326-0.138,0.591-0.354,0.798-0.647c0.207-0.291,0.31-0.614,0.31-0.965c0-1.412-0.953-2.118-2.858-2.118
	c-0.507,0-1.138,0.073-1.891,0.22v7.329c0.673,0.132,1.297,0.198,1.869,0.198c2.101,0,3.152-0.732,3.152-2.195
	c0-0.445-0.123-0.831-0.371-1.157C78.997,21.998,78.661,21.783,78.234,21.681 M77.951,20.089c0,0.673-0.446,1.01-1.336,1.01h-0.663
	v-1.931c0.218-0.037,0.416-0.054,0.598-0.054c0.434,0,0.757,0.051,0.967,0.153C77.805,19.42,77.951,19.694,77.951,20.089
	 M78.211,23.381c0,0.717-0.55,1.076-1.65,1.076c-0.189,0-0.392-0.019-0.609-0.055v-2.118h0.696
	C77.69,22.284,78.211,22.65,78.211,23.381 M72.419,24.555c0.609-0.702,0.914-1.616,0.914-2.743c0-1.141-0.298-2.063-0.892-2.765
	c-0.638-0.746-1.514-1.12-2.63-1.12c-1.108,0-1.981,0.374-2.619,1.12c-0.594,0.702-0.891,1.623-0.891,2.765
	c0,1.127,0.305,2.045,0.913,2.755c0.631,0.738,1.495,1.108,2.597,1.108C70.912,25.675,71.783,25.301,72.419,24.555 M71.876,21.812
	c0,0.738-0.159,1.349-0.477,1.833c-0.363,0.563-0.892,0.843-1.587,0.843c-0.688,0-1.216-0.281-1.585-0.843
	c-0.312-0.484-0.468-1.095-0.468-1.833c0-0.754,0.153-1.371,0.455-1.855c0.364-0.562,0.894-0.845,1.598-0.845
	c0.703,0,1.236,0.282,1.597,0.845C71.721,20.441,71.876,21.058,71.876,21.812 M61.282,25.553h4.432V24.37H62.64v-6.321h-1.357
	V25.553z M57.273,25.675c0.848,0,1.674-0.198,2.477-0.593v-3.467h-1.346v2.303c0,0.118,0.011,0.238,0.033,0.363
	c-0.305,0.124-0.703,0.186-1.196,0.186c-0.811,0-1.442-0.267-1.891-0.801c-0.412-0.505-0.619-1.174-0.619-2.008
	c0-0.76,0.214-1.372,0.64-1.838c0.428-0.464,1.015-0.697,1.761-0.697c0.579,0,1.217,0.151,1.912,0.45l0.457-1.14
	c-0.812-0.337-1.561-0.506-2.25-0.506c-1.231,0-2.198,0.333-2.9,0.999c-0.718,0.688-1.077,1.65-1.077,2.886
	c0,1.177,0.373,2.116,1.12,2.815C55.139,25.325,56.099,25.675,57.273,25.675"/>
<path fill="#425C93" d="M54.349,7.061c-4.482-3.552-10.421-3.808-15.842-2.974C32.96,4.94,27.572,7.051,22.676,9.772
	c-0.361,0.202-1.518,1.03-1.174,1.598c0.358,0.591,1.582-0.119,1.944-0.321c7.963-4.425,20.161-8.094,28.101-1.798
	C52.334,9.875,55.284,7.803,54.349,7.061"/>
<path fill="#425C93" d="M40.37,10.484c4.482,3.552,10.423,3.808,15.842,2.974c5.547-0.853,10.935-2.964,15.832-5.686
	c0.361-0.2,1.518-1.028,1.174-1.597c-0.357-0.591-1.582,0.119-1.944,0.321c-7.963,4.425-20.161,8.094-28.101,1.798
	C42.385,7.67,39.435,9.742,40.37,10.484"/>
</svg>
