<?xml version="1.0" encoding="utf-8"?>
<!-- Generator: Adobe Illustrator 17.0.0, SVG Export Plug-In . SVG Version: 6.00 Build 0)  -->
<!DOCTYPE svg PUBLIC "-//W3C//DTD SVG 1.1//EN" "http://www.w3.org/Graphics/SVG/1.1/DTD/svg11.dtd">
<svg version="1.1" id="Layer_1" xmlns="http://www.w3.org/2000/svg" xmlns:xlink="http://www.w3.org/1999/xlink" x="0px" y="0px"
	 width="50px" height="50px" viewBox="0 25 50 50" enable-background="new 0 25 50 50" xml:space="preserve">
<g>
	<path fill="#425C93" d="M37.719,68.532h-26.75c-0.75,0-1.375,0.625-1.375,1.375s0.625,1.375,1.375,1.375h26.75
		c0.75,0,1.375-0.625,1.375-1.375S38.469,68.532,37.719,68.532z"/>
	<path fill="#425C93" d="M45.969,43.969c-0.25-0.25-0.625-0.375-1-0.375h-34c-0.75,0-1.375,0.625-1.375,1.375v7.562
		c0,7.562,6.625,13.688,14.75,13.688c7.25,0,13.375-4.875,14.562-11.5c5.875-0.688,7.438-6.625,7.5-9.75
		C46.344,44.593,46.219,44.219,45.969,43.969z M43.469,46.282c-0.312,1.875-1.25,4.875-4.375,5.562v-5.562H43.469z M36.344,46.282
		v6.188c0,6.062-5.375,10.938-12,10.938s-12-4.938-12-10.938v-6.188H36.344z"/>
	<path fill="#425C93" d="M18.781,36.657c0,0.375-0.062,0.5-0.312,0.812c-0.312,0.438-0.812,1.188-0.812,2.375
		c0,0.75,0.625,1.375,1.375,1.375s1.375-0.625,1.375-1.375c0-0.375,0.062-0.5,0.312-0.812c0.312-0.438,0.812-1.188,0.812-2.438
		s-0.5-1.938-0.812-2.438c-0.25-0.312-0.312-0.438-0.312-0.812s0.062-0.5,0.312-0.812c0.312-0.438,0.812-1.188,0.812-2.438
		c0-0.75-0.625-1.375-1.375-1.375s-1.375,0.625-1.375,1.375c0,0.375-0.062,0.5-0.312,0.812c-0.312,0.438-0.812,1.188-0.812,2.438
		s0.5,1.938,0.812,2.438C18.719,36.157,18.781,36.282,18.781,36.657z"/>
	<path fill="#425C93" d="M23.531,36.657c0,0.375-0.062,0.5-0.312,0.812c-0.312,0.438-0.812,1.188-0.812,2.375
		c0,0.75,0.625,1.375,1.375,1.375s1.375-0.625,1.375-1.375c0-0.375,0.062-0.5,0.312-0.812c0.312-0.438,0.812-1.188,0.812-2.438
		s-0.5-1.938-0.812-2.438c-0.25-0.312-0.312-0.438-0.312-0.812s0.062-0.5,0.312-0.812c0.312-0.438,0.812-1.188,0.812-2.438
		c0-0.75-0.625-1.375-1.375-1.375s-1.375,0.625-1.375,1.375c0,0.375-0.062,0.5-0.312,0.812c-0.312,0.438-0.812,1.188-0.812,2.438
		s0.5,1.938,0.812,2.438C23.469,36.157,23.531,36.282,23.531,36.657z"/>
	<path fill="#425C93" d="M28.281,36.657c0,0.375-0.062,0.5-0.312,0.812c-0.312,0.438-0.812,1.188-0.812,2.375
		c0,0.75,0.625,1.375,1.375,1.375s1.375-0.625,1.375-1.375c0-0.375,0.062-0.5,0.312-0.812c0.312-0.438,0.812-1.188,0.812-2.438
		s-0.5-1.938-0.812-2.438c-0.25-0.312-0.312-0.438-0.312-0.812s0.062-0.5,0.312-0.812c0.312-0.438,0.812-1.188,0.812-2.438
		c0-0.75-0.625-1.375-1.375-1.375s-1.375,0.625-1.375,1.375c0,0.375-0.062,0.5-0.312,0.812c-0.312,0.438-0.812,1.188-0.812,2.438
		s0.5,1.938,0.812,2.438C28.157,36.157,28.281,36.282,28.281,36.657z"/>
</g>
</svg>
