<?xml version="1.0" encoding="utf-8"?>
<!-- Generator: Adobe Illustrator 17.0.0, SVG Export Plug-In . SVG Version: 6.00 Build 0)  -->
<!DOCTYPE svg PUBLIC "-//W3C//DTD SVG 1.1//EN" "http://www.w3.org/Graphics/SVG/1.1/DTD/svg11.dtd">
<svg version="1.1" id="Camada_1" xmlns="http://www.w3.org/2000/svg" xmlns:xlink="http://www.w3.org/1999/xlink" x="0px" y="0px"
	 width="50px" height="50px" viewBox="0 25 50 50" enable-background="new 0 25 50 50" xml:space="preserve">
<g transform="translate(0,-952.36218)">
	<path fill="none" stroke="#425C93" stroke-miterlimit="10" d="M25,980.862c-2.282,0-5.015,0.785-7.203,2.625S14,988.243,14,992.362
		c0,5.545-3.33,8.111-6.359,11.141c-0.148,0.147-0.187,0.392-0.094,0.578c0.582,1.164,1.796,2.064,3.172,2.719
		c0.87,0.414,1.818,0.73,2.734,0.906l-2.656,1.188c-3.25,1.413-5.297,5.36-5.297,8.969v5.5c0,0.262,0.238,0.5,0.5,0.5h38
		c0.262,0,0.5-0.238,0.5-0.5v-5.5c0-3.608-2.047-7.556-5.297-8.969l-2.656-1.188c0.916-0.176,1.865-0.492,2.734-0.906
		c1.376-0.655,2.59-1.555,3.172-2.719c0.094-0.186,0.054-0.431-0.094-0.578c-3.029-3.03-6.359-5.596-6.359-11.141
		c0-4.119-1.609-7.035-3.797-8.875S27.282,980.862,25,980.862z M25,981.862c2.05,0,4.568,0.726,6.547,2.391S35,988.501,35,992.362
		c0,5.746,3.418,8.662,6.328,11.531c-0.488,0.745-1.369,1.484-2.484,2.016c-1.12,0.522-2.838,1.014-4.234,0.953l-4.406-1.969
		c-0.024-0.012-0.053-0.008-0.078-0.016c0.359-0.421,0.712-0.876,1.047-1.359c1.779-2.568,3.202-5.995,3.828-9.578
		c0.026-0.157-0.028-0.325-0.141-0.438l-5.5-5.5c-0.118-0.123-0.302-0.178-0.469-0.141c-0.104,0.027-0.199,0.088-0.266,0.172
		c-2.714,3.133-8.099,5.328-13.125,5.328c-0.29-0.004-0.545,0.292-0.5,0.578c0.627,3.583,2.049,7.01,3.828,9.578
		c0.335,0.483,0.688,0.939,1.047,1.359c-0.026,0.008-0.054,0.004-0.078,0.016l-4.406,1.969c-1.397,0.061-3.114-0.431-4.234-0.953
		c-1.115-0.531-1.997-1.271-2.484-2.016c2.91-2.87,6.328-5.785,6.328-11.531c0-3.861,1.474-6.445,3.453-8.109
		S22.95,981.862,25,981.862z M28.969,989.034l4.969,4.969c-0.622,3.352-1.935,6.582-3.578,8.953
		c-1.682,2.427-3.67,3.906-5.359,3.906s-3.678-1.479-5.359-3.906c-1.594-2.301-2.871-5.412-3.516-8.656
		C21.044,994.14,26.037,992.129,28.969,989.034z M20.578,1005.643c1.37,1.37,2.875,2.219,4.422,2.219s3.052-0.848,4.422-2.219
		c0.795,0.368,8.188,3.641,8.188,3.641c-4.384,2.543-9.894,6.9-11.047,13.578h-3.125c-1.153-6.678-6.663-11.035-11.047-13.578
		C12.391,1009.284,19.783,1006.012,20.578,1005.643z M11.25,1009.8c4.318,2.399,9.957,6.628,11.156,13.062H6.5v-5
		c0-3.218,1.953-6.851,4.703-8.047L11.25,1009.8z M38.75,1009.8l0.047,0.016c2.75,1.196,4.703,4.829,4.703,8.047v5H27.594
		C28.793,1016.427,34.432,1012.198,38.75,1009.8z"/>
</g>
</svg>
