<?xml version="1.0" encoding="utf-8"?>
<!-- Generator: Adobe Illustrator 17.0.0, SVG Export Plug-In . SVG Version: 6.00 Build 0)  -->
<!DOCTYPE svg PUBLIC "-//W3C//DTD SVG 1.1//EN" "http://www.w3.org/Graphics/SVG/1.1/DTD/svg11.dtd">
<svg version="1.1" id="Layer_1" xmlns="http://www.w3.org/2000/svg" xmlns:xlink="http://www.w3.org/1999/xlink" x="0px" y="0px"
	 width="50px" height="50px" viewBox="0 0 50 50" enable-background="new 0 0 50 50" xml:space="preserve">
<g>
	<path fill="#425C93" d="M42.844,42.999h-7.312v-5.75h7.312V42.999z M26.031,37.249h7.312v5.75h-7.312V37.249z M16.531,37.249h7.312
		v5.75h-7.312V37.249z M7.094,37.249h7.25v5.75h-7.25V37.249z M7.094,10.061h4.312c0.5,1.812,2.125,3.125,4.062,3.125
		s3.562-1.375,4.062-3.125h10.875c0.5,1.812,2.125,3.125,4.063,3.125c1.937,0,3.562-1.375,4.062-3.125h4.375v8.188H7.094V10.061z
		 M13.469,8.999c0-0.438,0.188-0.812,0.438-1.125c0.375-0.5,0.937-0.875,1.562-0.875c0.687,0,1.25,0.375,1.562,0.875
		c0.25,0.313,0.438,0.687,0.438,1.125c0,0.375-0.125,0.75-0.375,1.062c-0.375,0.563-0.937,0.938-1.625,0.938
		s-1.313-0.375-1.625-0.938C13.594,9.749,13.469,9.437,13.469,8.999L13.469,8.999z M32.407,8.999c0-0.438,0.188-0.812,0.438-1.125
		c0.374-0.5,0.936-0.875,1.562-0.875s1.25,0.375,1.562,0.875c0.25,0.312,0.438,0.688,0.438,1.125c0,0.375-0.125,0.75-0.375,1.062
		c-0.375,0.563-0.938,0.938-1.625,0.938c-0.687,0-1.312-0.375-1.625-0.938C32.594,9.749,32.407,9.437,32.407,8.999L32.407,8.999z
		 M35.531,28.874h7.312v6.125h-7.312V28.874z M26.031,28.874h7.312v6.125h-7.312V28.874z M16.531,28.874h7.312v6.125h-7.312V28.874z
		 M7.094,28.874h7.25v6.125h-7.25V28.874z M14.344,26.624h-7.25v-6.188h7.25V26.624z M23.844,26.624h-7.312v-6.188h7.312V26.624z
		 M33.344,26.624h-7.312v-6.188h7.312V26.624z M42.844,26.624h-7.312v-6.188h7.312V26.624z M42.844,7.874h-4.438
		c-0.5-1.75-2.125-3.062-4-3.062c-1.938,0-3.5,1.312-4,3.062H19.469c-0.5-1.75-2.125-3.062-4-3.062c-1.938,0-3.5,1.312-4,3.062
		H7.094c-1.25,0-2.188,1-2.188,2.188v32.937c0,1.25,1,2.188,2.188,2.188h35.812c1.25,0,2.188-1,2.188-2.188V10.061
		C45.094,8.874,44.094,7.874,42.844,7.874L42.844,7.874z"/>
</g>
</svg>
